<svg xmlns="http://www.w3.org/2000/svg" viewBox="0 0 440 80">
  <g transform="translate(0, 0)">
    <path d="M25 8 C25 8, 18 0, 10 4 C2 8, 0 20, 5 35 C8 48, 10 58, 12 70 C13 76, 15 80, 18 80 C21 80, 22 76, 22 70 C22 64, 24 64, 25 70 C25 76, 26 80, 29 80 C32 80, 34 76, 35 70 C37 58, 39 48, 42 35 C47 20, 45 8, 37 4 C29 0, 25 8, 25 8Z" fill="#2EC4B6"/>
    <path d="M18 15 C18 15, 15 12, 13 16 C11 20, 12 28, 14 32" fill="none" stroke="white" stroke-width="2.5" stroke-linecap="round" opacity="0.4"/>
    <circle cx="38" cy="18" r="2" fill="white" opacity="0.3"/>
  </g>
  <text x="55" y="38" font-family="'DM Sans', system-ui, sans-serif" font-size="30" font-weight="600" fill="#F8F6F0">Dental<tspan fill="#2EC4B6">Journey</tspan>India</text>
  <text x="55" y="58" font-family="'DM Sans', system-ui, sans-serif" font-size="12" font-weight="400" fill="#8A8880" letter-spacing="0.5px">AI-powered dental tourism in India</text>
  <rect x="55" y="66" width="24" height="3" rx="1.5" fill="#FF9933" opacity="0.8"/>
  <rect x="82" y="66" width="24" height="3" rx="1.5" fill="#FFFFFF" opacity="0.5"/>
  <rect x="109" y="66" width="24" height="3" rx="1.5" fill="#138808" opacity="0.8"/>
</svg>
